<svg width="91" height="85" viewBox="0 0 91 85" fill="none" xmlns="http://www.w3.org/2000/svg">
<g filter="url(#filter0_d_94_1204)">
<ellipse cx="45.4999" cy="29.4999" rx="27.4999" ry="24.4999" fill="#658D9E"/>
</g>
<path d="M45.5 5C30.312 5 18 15.9689 18 29.5C18 43.0311 30.312 54 45.5 54C60.688 54 73 43.0311 73 29.5C73 15.9689 60.688 5 45.5 5ZM52.0141 21.9305H47.8805C47.3906 21.9305 46.8464 22.5047 46.8464 23.2678V25.9271H52.0169L51.2349 29.7195H46.8464V41.1043H41.968V29.7195H37.5422V25.9271H41.968V23.6966C41.968 20.4962 44.4602 17.8957 47.8805 17.8957H52.0141V21.9305Z" fill="#50585C"/>
<defs>
<filter id="filter0_d_94_1204" x="0" y="0" width="91" height="84.9998" filterUnits="userSpaceOnUse" color-interpolation-filters="sRGB">
<feFlood flood-opacity="0" result="BackgroundImageFix"/>
<feColorMatrix in="SourceAlpha" type="matrix" values="0 0 0 0 0 0 0 0 0 0 0 0 0 0 0 0 0 0 127 0" result="hardAlpha"/>
<feOffset dy="13"/>
<feGaussianBlur stdDeviation="9"/>
<feColorMatrix type="matrix" values="0 0 0 0 0.0658854 0 0 0 0 0.0730469 0 0 0 0 0.1375 0 0 0 0.08 0"/>
<feBlend mode="normal" in2="BackgroundImageFix" result="effect1_dropShadow_94_1204"/>
<feBlend mode="normal" in="SourceGraphic" in2="effect1_dropShadow_94_1204" result="shape"/>
</filter>
</defs>
</svg>
