<svg xmlns="http://www.w3.org/2000/svg" width="256" height="256" viewBox="0 0 100 100"><rect width="100" height="100" rx="50" fill="#77400b"></rect><path d="M42.34 30L47.11 30L47.11 70L42.42 70L20.63 38.59L20.23 38.59L20.23 70L15.39 70L15.39 30L20.08 30L41.95 61.48L42.34 61.48L42.34 30ZM71.25 70L56.80 70L56.80 30L70.78 30Q74.96 30 77.68 31.44Q80.39 32.87 81.72 35.28Q83.05 37.70 83.05 40.63L83.05 40.63Q83.05 43.20 82.14 44.88Q81.23 46.56 79.76 47.54Q78.28 48.52 76.56 48.98L76.56 48.98L76.56 49.38Q78.40 49.49 80.25 50.66Q82.11 51.84 83.36 54.02Q84.61 56.21 84.61 59.38L84.61 59.38Q84.61 62.38 83.24 64.79Q81.88 67.19 78.93 68.59Q75.98 70 71.25 70L71.25 70ZM61.64 51.80L61.64 65.70L71.25 65.70Q76.00 65.70 78.00 63.86Q80 62.01 80 59.38L80 59.38Q80 57.34 78.96 55.62Q77.93 53.89 76.02 52.84Q74.10 51.80 71.48 51.80L71.48 51.80L61.64 51.80ZM61.64 34.30L61.64 47.58L70.63 47.58Q72.81 47.58 74.58 46.72Q76.35 45.86 77.39 44.30Q78.44 42.73 78.44 40.63L78.44 40.63Q78.44 37.99 76.60 36.14Q74.77 34.30 70.78 34.30L70.78 34.30L61.64 34.30Z" fill="#fff"></path></svg>