<svg width="91" height="90" viewBox="0 0 91 90" fill="none" xmlns="http://www.w3.org/2000/svg">
<g filter="url(#filter0_d_94_1266)">
<ellipse cx="45.2999" cy="31.8149" rx="27.2999" ry="26.8149" fill="#658D9E"/>
</g>
<path d="M53.8313 31.815C53.8313 34.0375 52.9324 36.1689 51.3325 37.7404C49.7326 39.3119 47.5626 40.1947 45.3 40.1947C43.0374 40.1947 40.8674 39.3119 39.2675 37.7404C37.6676 36.1689 36.7688 34.0375 36.7688 31.815C36.7688 31.3374 36.8199 30.8709 36.9081 30.4184H33.925V41.583C33.925 42.3595 34.5648 42.988 35.3554 42.988H55.2474C55.6263 42.9872 55.9894 42.8389 56.2571 42.5755C56.5247 42.312 56.675 41.9551 56.675 41.583V30.4184H53.6919C53.7801 30.8709 53.8313 31.3374 53.8313 31.815ZM45.3 37.4015C46.0471 37.4013 46.7868 37.2566 47.477 36.9756C48.1671 36.6946 48.7941 36.2829 49.3223 35.7639C49.8504 35.2448 50.2693 34.6287 50.555 33.9507C50.8407 33.2727 50.9877 32.546 50.9875 31.8122C50.9873 31.0784 50.84 30.3518 50.5539 29.674C50.2678 28.9961 49.8486 28.3802 49.3203 27.8614C48.7919 27.3427 48.1646 26.9312 47.4743 26.6506C46.784 26.3699 46.0442 26.2256 45.2972 26.2258C43.7884 26.2261 42.3415 26.8152 41.2749 27.8634C40.2083 28.9116 39.6093 30.333 39.6097 31.815C39.61 33.297 40.2098 34.7182 41.2769 35.7658C42.3441 36.8135 43.7912 37.4019 45.3 37.4015ZM52.125 25.9492H55.5347C55.7612 25.9492 55.9785 25.861 56.1389 25.704C56.2994 25.5469 56.3899 25.3338 56.3906 25.1113V21.7622C56.3906 21.5392 56.3004 21.3253 56.1399 21.1677C55.9794 21.01 55.7617 20.9214 55.5347 20.9214H52.125C51.898 20.9214 51.6803 21.01 51.5197 21.1677C51.3592 21.3253 51.269 21.5392 51.269 21.7622V25.1113C51.2719 25.5722 51.6558 25.9492 52.125 25.9492ZM45.3 5C38.0596 5 31.1157 7.82515 25.996 12.8539C20.8762 17.8827 18 24.7032 18 31.815C18 38.9268 20.8762 45.7473 25.996 50.7761C31.1157 55.8049 38.0596 58.6301 45.3 58.6301C48.8851 58.6301 52.4351 57.9365 55.7473 56.5889C59.0595 55.2413 62.069 53.2661 64.604 50.7761C67.1391 48.2861 69.15 45.33 70.5219 42.0767C71.8939 38.8233 72.6 35.3364 72.6 31.815C72.6 28.2936 71.8939 24.8067 70.5219 21.5534C69.15 18.3 67.1391 15.3439 64.604 12.8539C62.069 10.3639 59.0595 8.38875 55.7473 7.04117C52.4351 5.69359 48.8851 5 45.3 5ZM59.5188 42.6779C59.5188 44.3846 58.0969 45.7812 56.3593 45.7812H34.2407C32.5031 45.7812 31.0813 44.3846 31.0813 42.6779V20.9521C31.0813 19.2455 32.5031 17.8489 34.2407 17.8489H56.3593C58.0969 17.8489 59.5188 19.2455 59.5188 20.9521V42.6779Z" fill="#50585C"/>
<defs>
<filter id="filter0_d_94_1266" x="0" y="0" width="90.5996" height="89.6299" filterUnits="userSpaceOnUse" color-interpolation-filters="sRGB">
<feFlood flood-opacity="0" result="BackgroundImageFix"/>
<feColorMatrix in="SourceAlpha" type="matrix" values="0 0 0 0 0 0 0 0 0 0 0 0 0 0 0 0 0 0 127 0" result="hardAlpha"/>
<feOffset dy="13"/>
<feGaussianBlur stdDeviation="9"/>
<feColorMatrix type="matrix" values="0 0 0 0 0.0658854 0 0 0 0 0.0730469 0 0 0 0 0.1375 0 0 0 0.08 0"/>
<feBlend mode="normal" in2="BackgroundImageFix" result="effect1_dropShadow_94_1266"/>
<feBlend mode="normal" in="SourceGraphic" in2="effect1_dropShadow_94_1266" result="shape"/>
</filter>
</defs>
</svg>
