<svg width="69" height="69" viewBox="0 0 69 69" fill="none" xmlns="http://www.w3.org/2000/svg">
<g filter="url(#filter0_d_109_316)">
<ellipse cx="34.4999" cy="21.4999" rx="16.4999" ry="16.4999" fill="#658D9E"/>
</g>
<path d="M39.6562 21.5C39.6562 22.8675 39.113 24.179 38.146 25.146C37.179 26.113 35.8675 26.6562 34.5 26.6562C33.1325 26.6562 31.821 26.113 30.854 25.146C29.887 24.179 29.3437 22.8675 29.3437 21.5C29.3437 21.2061 29.3747 20.9191 29.428 20.6406H27.625V27.5105C27.625 27.9883 28.0117 28.375 28.4895 28.375H40.5122C40.7412 28.3745 40.9606 28.2833 41.1224 28.1212C41.2842 27.9591 41.375 27.7395 41.375 27.5105V20.6406H39.572C39.6253 20.9191 39.6562 21.2061 39.6562 21.5V21.5ZM34.5 24.9375C34.9515 24.9374 35.3986 24.8483 35.8157 24.6754C36.2329 24.5025 36.6118 24.2492 36.931 23.9298C37.2502 23.6105 37.5034 23.2314 37.6761 22.8141C37.8488 22.3969 37.9376 21.9498 37.9375 21.4983C37.9374 21.0467 37.8483 20.5997 37.6754 20.1825C37.5025 19.7654 37.2492 19.3864 36.9298 19.0672C36.6105 18.748 36.2314 18.4949 35.8141 18.3222C35.3969 18.1495 34.9498 18.0607 34.4983 18.0608C33.5864 18.061 32.7119 18.4235 32.0672 19.0685C31.4226 19.7134 31.0606 20.5881 31.0608 21.5C31.061 22.4119 31.4235 23.2864 32.0685 23.931C32.7134 24.5757 33.5881 24.9377 34.5 24.9375V24.9375ZM38.625 17.8906H40.6858C40.8227 17.8906 40.954 17.8364 41.051 17.7397C41.148 17.6431 41.2027 17.5119 41.2031 17.375V15.3142C41.2031 15.177 41.1486 15.0454 41.0516 14.9484C40.9546 14.8514 40.823 14.7969 40.6858 14.7969H38.625C38.4878 14.7969 38.3562 14.8514 38.2592 14.9484C38.1622 15.0454 38.1077 15.177 38.1077 15.3142V17.375C38.1094 17.6586 38.3414 17.8906 38.625 17.8906V17.8906ZM34.5 5C30.1239 5 25.9271 6.73839 22.8327 9.83274C19.7384 12.9271 18 17.1239 18 21.5C18 25.8761 19.7384 30.0729 22.8327 33.1673C25.9271 36.2616 30.1239 38 34.5 38C36.6668 38 38.8124 37.5732 40.8143 36.744C42.8161 35.9148 44.6351 34.6994 46.1673 33.1673C47.6994 31.6351 48.9148 29.8161 49.744 27.8143C50.5732 25.8124 51 23.6668 51 21.5C51 19.3332 50.5732 17.1876 49.744 15.1857C48.9148 13.1839 47.6994 11.3649 46.1673 9.83274C44.6351 8.30057 42.8161 7.08519 40.8143 6.25599C38.8124 5.42679 36.6668 5 34.5 5V5ZM43.0937 28.1842C43.0937 29.2344 42.2344 30.0937 41.1842 30.0937H27.8158C26.7656 30.0937 25.9062 29.2344 25.9062 28.1842V14.8158C25.9062 13.7656 26.7656 12.9062 27.8158 12.9062H41.1842C42.2344 12.9062 43.0937 13.7656 43.0937 14.8158V28.1842V28.1842Z" fill="#50585C"/>
<defs>
<filter id="filter0_d_109_316" x="0" y="0" width="69" height="68.9999" filterUnits="userSpaceOnUse" color-interpolation-filters="sRGB">
<feFlood flood-opacity="0" result="BackgroundImageFix"/>
<feColorMatrix in="SourceAlpha" type="matrix" values="0 0 0 0 0 0 0 0 0 0 0 0 0 0 0 0 0 0 127 0" result="hardAlpha"/>
<feOffset dy="13"/>
<feGaussianBlur stdDeviation="9"/>
<feColorMatrix type="matrix" values="0 0 0 0 0.0658854 0 0 0 0 0.0730469 0 0 0 0 0.1375 0 0 0 0.08 0"/>
<feBlend mode="normal" in2="BackgroundImageFix" result="effect1_dropShadow_109_316"/>
<feBlend mode="normal" in="SourceGraphic" in2="effect1_dropShadow_109_316" result="shape"/>
</filter>
</defs>
</svg>
