<svg width="279" height="93" viewBox="0 0 279 93" fill="none" xmlns="http://www.w3.org/2000/svg">
<path d="M29.0043 2.54545V36H22.1435L8.83026 16.6918H8.6179V36H0.53196V2.54545H7.49077L20.657 21.821H20.9347V2.54545H29.0043ZM39.2995 37.6825L35.8691 35.3629L60.0779 0.928266L63.492 3.24787L39.2995 37.6825ZM65.6646 19.2727C65.6646 22.9536 64.9567 26.0736 63.541 28.6328C62.1253 31.192 60.2086 33.1359 57.791 34.4645C55.3843 35.7931 52.6835 36.4574 49.6887 36.4574C46.6831 36.4574 43.9769 35.7876 41.5701 34.4482C39.1634 33.1087 37.2522 31.1648 35.8365 28.6165C34.4316 26.0573 33.7292 22.9427 33.7292 19.2727C33.7292 15.5919 34.4316 12.4718 35.8365 9.91264C37.2522 7.35346 39.1634 5.40956 41.5701 4.08097C43.9769 2.75237 46.6831 2.08807 49.6887 2.08807C52.6835 2.08807 55.3843 2.75237 57.791 4.08097C60.2086 5.40956 62.1253 7.35346 63.541 9.91264C64.9567 12.4718 65.6646 15.5919 65.6646 19.2727ZM57.399 19.2727C57.399 17.0947 57.0886 15.2543 56.4679 13.7514C55.858 12.2486 54.9759 11.1106 53.8216 10.3374C52.6781 9.56416 51.3005 9.17756 49.6887 9.17756C48.0879 9.17756 46.7103 9.56416 45.5559 10.3374C44.4016 11.1106 43.514 12.2486 42.8933 13.7514C42.2834 15.2543 41.9785 17.0947 41.9785 19.2727C41.9785 21.4508 42.2834 23.2912 42.8933 24.794C43.514 26.2969 44.4016 27.4349 45.5559 28.2081C46.7103 28.9813 48.0879 29.3679 49.6887 29.3679C51.3005 29.3679 52.6781 28.9813 53.8216 28.2081C54.9759 27.4349 55.858 26.2969 56.4679 24.794C57.0886 23.2912 57.399 21.4508 57.399 19.2727ZM70.3855 36V2.54545H84.2051C86.7098 2.54545 88.8715 2.99739 90.6902 3.90128C92.5197 4.79427 93.93 6.07931 94.921 7.75639C95.912 9.42258 96.4075 11.3991 96.4075 13.6861C96.4075 16.0057 95.9011 17.9768 94.8883 19.5994C93.8755 21.2112 92.438 22.4418 90.5758 23.2912C88.7136 24.1297 86.5083 24.549 83.9601 24.549H75.2207V18.1783H82.4572C83.6769 18.1783 84.6951 18.0204 85.5119 17.7045C86.3395 17.3778 86.9657 16.8878 87.3904 16.2344C87.8152 15.5701 88.0275 14.7206 88.0275 13.6861C88.0275 12.6515 87.8152 11.7966 87.3904 11.1214C86.9657 10.4354 86.3395 9.92353 85.5119 9.58594C84.6842 9.23745 83.666 9.06321 82.4572 9.06321H78.4714V36H70.3855ZM89.22 20.7102L97.551 36H88.7299L80.5623 20.7102H89.22ZM100.843 36V2.54545H114.662C117.167 2.54545 119.329 2.99739 121.147 3.90128C122.977 4.79427 124.387 6.07931 125.378 7.75639C126.369 9.42258 126.865 11.3991 126.865 13.6861C126.865 16.0057 126.358 17.9768 125.345 19.5994C124.333 21.2112 122.895 22.4418 121.033 23.2912C119.171 24.1297 116.965 24.549 114.417 24.549H105.678V18.1783H112.914C114.134 18.1783 115.152 18.0204 115.969 17.7045C116.797 17.3778 117.423 16.8878 117.847 16.2344C118.272 15.5701 118.485 14.7206 118.485 13.6861C118.485 12.6515 118.272 11.7966 117.847 11.1214C117.423 10.4354 116.797 9.92353 115.969 9.58594C115.141 9.23745 114.123 9.06321 112.914 9.06321H108.928V36H100.843ZM119.677 20.7102L128.008 36H119.187L111.019 20.7102H119.677ZM131.3 36V2.54545H154.626V9.11222H139.385V15.973H153.434V22.5561H139.385V29.4332H154.626V36H131.3ZM0.53196 92V58.5455H14.4822C16.987 58.5455 19.0833 58.8994 20.7713 59.6072C22.4702 60.3151 23.7443 61.3061 24.5938 62.5803C25.4541 63.8544 25.8842 65.33 25.8842 67.0071C25.8842 68.2812 25.6174 69.4193 25.0838 70.4212C24.5502 71.4122 23.8151 72.2344 22.8786 72.8878C21.942 73.5412 20.8584 73.9986 19.6278 74.2599V74.5866C20.9782 74.652 22.2251 75.0168 23.3686 75.6811C24.523 76.3454 25.4486 77.2711 26.1456 78.4581C26.8426 79.6342 27.1911 81.0282 27.1911 82.6399C27.1911 84.4368 26.7337 86.0431 25.8189 87.4588C24.9041 88.8636 23.581 89.9744 21.8494 90.7912C20.1179 91.5971 18.0161 92 15.544 92H0.53196ZM8.6179 85.4822H13.6165C15.3698 85.4822 16.6603 85.1501 17.4879 84.4858C18.3265 83.8215 18.7457 82.8958 18.7457 81.7088C18.7457 80.8485 18.5443 80.108 18.1413 79.4872C17.7384 78.8556 17.1667 78.371 16.4261 78.0334C15.6856 77.6849 14.7981 77.5107 13.7635 77.5107H8.6179V85.4822ZM8.6179 72.2997H13.0938C13.9759 72.2997 14.7599 72.1527 15.446 71.8587C16.1321 71.5646 16.6657 71.1399 17.0469 70.5845C17.4389 70.0291 17.6349 69.3594 17.6349 68.5753C17.6349 67.4536 17.2375 66.5715 16.4425 65.929C15.6475 65.2865 14.5748 64.9652 13.2244 64.9652H8.6179V72.2997ZM31.0788 92V58.5455H44.8984C47.4032 58.5455 49.5649 58.9974 51.3835 59.9013C53.2131 60.7943 54.6233 62.0793 55.6143 63.7564C56.6054 65.4226 57.1009 67.3991 57.1009 69.6861C57.1009 72.0057 56.5945 73.9768 55.5817 75.5994C54.5689 77.2112 53.1314 78.4418 51.2692 79.2912C49.407 80.1297 47.2017 80.549 44.6534 80.549H35.9141V74.1783H43.1506C44.3703 74.1783 45.3885 74.0204 46.2053 73.7045C47.0329 73.3778 47.6591 72.8878 48.0838 72.2344C48.5085 71.5701 48.7209 70.7206 48.7209 69.6861C48.7209 68.6515 48.5085 67.7966 48.0838 67.1214C47.6591 66.4354 47.0329 65.9235 46.2053 65.5859C45.3776 65.2375 44.3594 65.0632 43.1506 65.0632H39.1648V92H31.0788ZM49.9134 76.7102L58.2443 92H49.4233L41.2557 76.7102H49.9134ZM58.3873 58.5455H67.4206L74.4938 72.5447H74.7878L81.861 58.5455H90.8944L78.6593 80.8267V92H70.6223V80.8267L58.3873 58.5455ZM114.037 69.4737C113.852 68.7876 113.58 68.1832 113.221 67.6605C112.861 67.1269 112.42 66.675 111.897 66.3047C111.375 65.9344 110.776 65.6567 110.1 65.4716C109.425 65.2756 108.685 65.1776 107.879 65.1776C106.256 65.1776 104.851 65.5696 103.664 66.3537C102.488 67.1378 101.579 68.2812 100.936 69.7841C100.294 71.276 99.9727 73.0893 99.9727 75.2237C99.9727 77.3691 100.283 79.1986 100.904 80.7124C101.525 82.2261 102.423 83.3804 103.599 84.1754C104.775 84.9704 106.202 85.3679 107.879 85.3679C109.36 85.3679 110.612 85.1283 111.636 84.6491C112.671 84.1591 113.455 83.4676 113.988 82.5746C114.522 81.6816 114.789 80.6307 114.789 79.4219L116.292 79.6016H108.157V73.7045H122.581V78.1314C122.581 81.1262 121.944 83.6908 120.669 85.8253C119.406 87.9598 117.664 89.5987 115.442 90.7422C113.231 91.8857 110.689 92.4574 107.814 92.4574C104.623 92.4574 101.819 91.7659 99.4009 90.3828C96.9833 88.9998 95.0993 87.0286 93.7489 84.4695C92.3986 81.8994 91.7234 78.8501 91.7234 75.3217C91.7234 72.5774 92.1317 70.1435 92.9485 68.0199C93.7653 65.8854 94.9033 64.0777 96.3626 62.5966C97.8327 61.1155 99.5316 59.9938 101.459 59.2315C103.398 58.4692 105.483 58.0881 107.716 58.0881C109.654 58.0881 111.456 58.3658 113.123 58.9212C114.8 59.4766 116.281 60.2607 117.566 61.2734C118.862 62.2862 119.913 63.4896 120.718 64.8835C121.524 66.2775 122.025 67.8075 122.221 69.4737H114.037ZM149.301 69.4737C149.116 68.7876 148.844 68.1832 148.484 67.6605C148.125 67.1269 147.684 66.675 147.161 66.3047C146.638 65.9344 146.039 65.6567 145.364 65.4716C144.689 65.2756 143.948 65.1776 143.143 65.1776C141.52 65.1776 140.115 65.5696 138.928 66.3537C137.752 67.1378 136.843 68.2812 136.2 69.7841C135.558 71.276 135.236 73.0893 135.236 75.2237C135.236 77.3691 135.547 79.1986 136.167 80.7124C136.788 82.2261 137.687 83.3804 138.863 84.1754C140.039 84.9704 141.465 85.3679 143.143 85.3679C144.624 85.3679 145.876 85.1283 146.9 84.6491C147.934 84.1591 148.718 83.4676 149.252 82.5746C149.786 81.6816 150.052 80.6307 150.052 79.4219L151.555 79.6016H143.42V73.7045H157.844V78.1314C157.844 81.1262 157.207 83.6908 155.933 85.8253C154.67 87.9598 152.927 89.5987 150.706 90.7422C148.495 91.8857 145.952 92.4574 143.077 92.4574C139.886 92.4574 137.082 91.7659 134.665 90.3828C132.247 88.9998 130.363 87.0286 129.013 84.4695C127.662 81.8994 126.987 78.8501 126.987 75.3217C126.987 72.5774 127.395 70.1435 128.212 68.0199C129.029 65.8854 130.167 64.0777 131.626 62.5966C133.096 61.1155 134.795 59.9938 136.723 59.2315C138.661 58.4692 140.747 58.0881 142.979 58.0881C144.918 58.0881 146.72 58.3658 148.386 58.9212C150.063 59.4766 151.544 60.2607 152.829 61.2734C154.125 62.2862 155.176 63.4896 155.982 64.8835C156.788 66.2775 157.289 67.8075 157.485 69.4737H149.301ZM162.61 92V58.5455H185.937V65.1122H170.696V71.973H184.744V78.5561H170.696V85.4332H185.937V92H162.61ZM191.001 92V58.5455H204.82C207.325 58.5455 209.487 58.9974 211.305 59.9013C213.135 60.7943 214.545 62.0793 215.536 63.7564C216.527 65.4226 217.023 67.3991 217.023 69.6861C217.023 72.0057 216.516 73.9768 215.504 75.5994C214.491 77.2112 213.053 78.4418 211.191 79.2912C209.329 80.1297 207.124 80.549 204.575 80.549H195.836V74.1783H203.072C204.292 74.1783 205.31 74.0204 206.127 73.7045C206.955 73.3778 207.581 72.8878 208.006 72.2344C208.43 71.5701 208.643 70.7206 208.643 69.6861C208.643 68.6515 208.43 67.7966 208.006 67.1214C207.581 66.4354 206.955 65.9235 206.127 65.5859C205.299 65.2375 204.281 65.0632 203.072 65.0632H199.087V92H191.001ZM209.835 76.7102L218.166 92H209.345L201.178 76.7102H209.835ZM221.458 92V58.5455H244.784V65.1122H229.544V71.973H243.592V78.5561H229.544V85.4332H244.784V92H221.458ZM278.321 58.5455V92H271.46L258.147 72.6918H257.934V92H249.848V58.5455H256.807L269.973 77.821H270.251V58.5455H278.321Z" fill="#D6964B"/>
</svg>
