<svg width="91" height="86" viewBox="0 0 91 86" fill="none" xmlns="http://www.w3.org/2000/svg">
<g filter="url(#filter0_d_94_1328)">
<ellipse cx="45.2999" cy="29.8149" rx="27.2999" ry="24.8149" fill="#658D9E"/>
</g>
<path d="M45.3 5C30.2224 5 18 16.1099 18 29.815C18 43.5202 30.2224 54.6301 45.3 54.6301C60.3776 54.6301 72.6 43.5202 72.6 29.815C72.6 16.1099 60.3776 5 45.3 5ZM56.4048 25.3276C56.4162 25.5396 56.4191 25.7516 56.4191 25.9584C56.4191 32.4206 51.0131 39.8677 41.1225 39.8677C38.2 39.8721 35.3382 39.1091 32.8813 37.6705C33.2994 37.7171 33.7288 37.7352 34.1639 37.7352C36.6834 37.7352 39.0011 36.9571 40.841 35.644C39.7198 35.624 38.6333 35.2865 37.7331 34.6786C36.8329 34.0706 36.1637 33.2226 35.8189 32.2526C36.6242 32.3918 37.4537 32.3626 38.2447 32.1673C37.0277 31.9436 35.9333 31.3442 35.147 30.4707C34.3607 29.5973 33.931 28.5035 33.9307 27.3749V27.3154C34.6558 27.6799 35.4862 27.9022 36.3678 27.9281C35.2269 27.2377 34.4192 26.1772 34.11 24.9635C33.8007 23.7498 34.0133 22.4746 34.7042 21.3986C36.0548 22.9082 37.7392 24.1431 39.6482 25.0234C41.5573 25.9037 43.6484 26.4098 45.7863 26.5089C45.5145 25.4603 45.6315 24.3594 46.119 23.3773C46.6066 22.3953 47.4374 21.5873 48.4824 21.0788C49.5273 20.5702 50.7278 20.3898 51.8972 20.5654C53.0666 20.7411 54.1394 21.263 54.9488 22.05C56.1522 21.8336 57.3063 21.4323 58.3614 20.8635C57.9603 21.9961 57.1205 22.9577 55.9982 23.5699C57.0642 23.4532 58.105 23.1927 59.0865 22.797C58.3656 23.779 57.4574 24.636 56.4048 25.3276Z" fill="#50585C"/>
<defs>
<filter id="filter0_d_94_1328" x="0" y="0" width="90.5996" height="85.6299" filterUnits="userSpaceOnUse" color-interpolation-filters="sRGB">
<feFlood flood-opacity="0" result="BackgroundImageFix"/>
<feColorMatrix in="SourceAlpha" type="matrix" values="0 0 0 0 0 0 0 0 0 0 0 0 0 0 0 0 0 0 127 0" result="hardAlpha"/>
<feOffset dy="13"/>
<feGaussianBlur stdDeviation="9"/>
<feColorMatrix type="matrix" values="0 0 0 0 0.0658854 0 0 0 0 0.0730469 0 0 0 0 0.1375 0 0 0 0.08 0"/>
<feBlend mode="normal" in2="BackgroundImageFix" result="effect1_dropShadow_94_1328"/>
<feBlend mode="normal" in="SourceGraphic" in2="effect1_dropShadow_94_1328" result="shape"/>
</filter>
</defs>
</svg>
