<svg width="69" height="69" viewBox="0 0 69 69" fill="none" xmlns="http://www.w3.org/2000/svg">
<g filter="url(#filter0_d_109_313)">
<ellipse cx="34.4999" cy="21.4999" rx="16.4999" ry="16.4999" fill="#658D9E"/>
</g>
<path d="M34.5 5C25.3872 5 18 12.3872 18 21.5C18 30.6128 25.3872 38 34.5 38C43.6128 38 51 30.6128 51 21.5C51 12.3872 43.6128 5 34.5 5ZM41.2117 18.5162C41.2186 18.6572 41.2203 18.7981 41.2203 18.9356C41.2203 23.2325 37.953 28.1842 31.9752 28.1842C30.2088 28.1872 28.4792 27.6798 26.9942 26.7233C27.2469 26.7542 27.5064 26.7663 27.7694 26.7663C29.2922 26.7663 30.693 26.2489 31.805 25.3758C31.1273 25.3625 30.4707 25.1381 29.9266 24.7339C29.3825 24.3296 28.9781 23.7658 28.7697 23.1208C29.2564 23.2133 29.7577 23.1939 30.2358 23.0641C29.5002 22.9153 28.8388 22.5168 28.3636 21.936C27.8883 21.3552 27.6286 20.6279 27.6284 19.8775V19.838C28.0667 20.0803 28.5686 20.2281 29.1014 20.2453C28.4118 19.7863 27.9237 19.0812 27.7368 18.2741C27.5499 17.4671 27.6784 16.6192 28.0959 15.9037C28.9123 16.9075 29.9303 17.7286 31.0841 18.314C32.2379 18.8993 33.5018 19.2358 34.7939 19.3017C34.6296 18.6044 34.7003 17.8724 34.995 17.2195C35.2897 16.5665 35.7918 16.0292 36.4234 15.6911C37.055 15.353 37.7805 15.233 38.4873 15.3497C39.1941 15.4665 39.8425 15.8136 40.3317 16.3369C41.059 16.193 41.7565 15.9262 42.3942 15.548C42.1518 16.301 41.6443 16.9405 40.9659 17.3475C41.6102 17.2699 42.2393 17.0967 42.8325 16.8336C42.3968 17.4865 41.8479 18.0564 41.2117 18.5162V18.5162Z" fill="#50585C"/>
<defs>
<filter id="filter0_d_109_313" x="0" y="0" width="69" height="68.9999" filterUnits="userSpaceOnUse" color-interpolation-filters="sRGB">
<feFlood flood-opacity="0" result="BackgroundImageFix"/>
<feColorMatrix in="SourceAlpha" type="matrix" values="0 0 0 0 0 0 0 0 0 0 0 0 0 0 0 0 0 0 127 0" result="hardAlpha"/>
<feOffset dy="13"/>
<feGaussianBlur stdDeviation="9"/>
<feColorMatrix type="matrix" values="0 0 0 0 0.0658854 0 0 0 0 0.0730469 0 0 0 0 0.1375 0 0 0 0.08 0"/>
<feBlend mode="normal" in2="BackgroundImageFix" result="effect1_dropShadow_109_313"/>
<feBlend mode="normal" in="SourceGraphic" in2="effect1_dropShadow_109_313" result="shape"/>
</filter>
</defs>
</svg>
